<?xml version="1.0" encoding="UTF-8"?><svg id="Layer_1" xmlns="http://www.w3.org/2000/svg" viewBox="0 0 311 311"><defs><style>.cls-1{stroke:#000;stroke-width:4.21px;}.cls-1,.cls-2{fill:none;stroke-miterlimit:10;}.cls-2{stroke:#231f20;stroke-width:11px;}</style></defs><path class="cls-1" d="M130.48,57.64c2.89.5,5.81.9,8.67,1.51,25.06,5.39,44.44,25.74,48.48,51.02,2.83,17.71-1.17,33.81-11.84,48.24-.32.43-.61.88-.79,1.13,2.89,2.95,5.7,5.81,9.04,9.21.44-.65.85-1.58,1.54-2.21,2.23-2.04,4.78-1.99,6.91.14,17.95,17.94,35.88,35.9,53.79,53.88.78.78,1.24,1.88,1.84,2.83v1.45c-1.08,1.41-2.04,2.95-3.27,4.22-3.82,3.94-7.73,7.79-11.62,11.66-2.82,2.81-5.11,2.81-7.91,0-17.62-17.61-35.23-35.22-52.85-52.83-3.06-3.06-3.05-5.21.02-8.32.38-.38.74-.79,1.01-1.08-2.89-2.9-5.73-5.75-8.7-8.73-.36.26-.9.62-1.42,1.01-12.79,9.49-27.2,13.59-42.99,12.28-28.03-2.32-51.05-23.16-56.35-50.63-6.39-33.11,14.6-65.47,47.47-73.09,3.15-.73,6.38-1.13,9.57-1.68,3.14,0,6.27,0,9.41,0Z"/><path d="M135.6,158.01c0-4.97,0-9.61,0-14.25,0-12.69.03-25.38-.02-38.07-.01-2.61.33-3.5,1.51-3.44,3.29.15,6.58.07,9.88.05.73,0,1.25.18,1.25,2.36-.03,17.34-.02,34.69-.03,52.03,0,.4-.07.8-.12,1.33h-12.46Z"/><path d="M119.02,158.01c0-2.98,0-5.77,0-8.56,0-7.62.03-15.24-.02-22.86-.01-1.57.33-2.1,1.51-2.07,3.29.09,6.58.04,9.88.03.73,0,1.25.11,1.25,1.42-.03,10.42-.02,20.83-.03,31.25,0,.24-.07.48-.12.8h-12.46Z"/><path d="M102.45,158.01c0-4.42,0-8.55,0-12.68,0-11.29.03-22.57-.02-33.86-.01-2.32.33-3.11,1.51-3.06,3.29.13,6.58.06,9.88.04.73,0,1.25.16,1.25,2.1-.03,15.43-.02,30.85-.03,46.28,0,.35-.07.71-.12,1.18h-12.46Z"/><circle cx="108.12" cy="88.7" r="6.31"/><circle cx="125.63" cy="104.78" r="6.31"/><circle cx="141.21" cy="77.96" r="6.31"/><circle class="cls-2" cx="155.5" cy="155.5" r="150"/><polyline class="cls-1" points="108.12 88.7 125.63 104.78 141.21 77.96"/></svg>