<?xml version="1.0" encoding="UTF-8"?><svg id="Layer_1" xmlns="http://www.w3.org/2000/svg" viewBox="0 0 269.06 269.06"><defs><style>.cls-1{fill:#fff;}.cls-2{fill:none;stroke:#231f20;stroke-miterlimit:10;stroke-width:11px;}</style></defs><path class="cls-1" d="M53.22,140.01h-.02c0,9.74-.01,19.48,0,29.23,0,3.65,1.99,6.82,5.48,7.78,2.26.62,4.75.56,7.13.53,4.67-.06,8.05-3.48,8.06-8.14.04-16.82.02-33.64,0-50.47,0-3.38-2.31-6.61-5.57-7.41-2.05-.5-4.25-.44-6.39-.52-1.1-.04-1.5-.26-1.28-1.5,1.22-6.97,3.44-13.6,6.53-19.94,4.82-9.89,11.47-18.36,19.89-25.41,10.82-9.06,23.24-14.73,37.15-16.99,8.87-1.44,17.76-1.31,26.63.37,11.69,2.21,22.28,6.86,31.79,13.96,10.75,8.02,18.89,18.18,24.38,30.43,2.53,5.65,4.38,11.52,5.44,17.64.19,1.12-.15,1.47-1.21,1.44-1.45-.04-2.91-.06-4.36,0-4.04.18-7.67,3.7-7.68,7.67-.04,17.07-.04,34.15,0,51.22.01,3.88,3.32,7.31,7.19,7.61,1.65.13,3.31.09,4.96.07,5.06-.05,8.5-3.45,8.5-8.53.02-18.53.06-37.06-.02-55.59-.04-8.9-1.68-17.57-4.65-25.96-5.22-14.78-13.88-27.18-26.03-37.07-13.84-11.26-29.71-17.48-47.52-18.57-14.02-.86-27.48,1.58-40.21,7.57-16.18,7.62-28.73,19.24-37.55,34.82-6.8,12.02-10.37,24.97-10.63,38.78-.17,8.99-.03,17.98-.03,26.97Z"/><path class="cls-1" d="M224.19,144.32c0,4.31,0,8.63,0,12.94,0,3.21.01,6.42,0,9.63,0,1.18.36,2.15,1.64,2.33,6.45.9,10.68-3.06,10.68-8.43,0-10.94.04-21.87-.01-32.81,0-1.22-.22-2.54-.71-3.65-1.62-3.72-4.68-5.13-8.6-5.02-2.48.07-2.99.54-2.99,3.02-.01,7.32,0,14.65,0,21.97Z"/><path class="cls-1" d="M48.87,144.38h0c0-7.47,0-14.95,0-22.42,0-1.86-.56-2.46-2.32-2.64-5.8-.59-9.97,3.09-9.99,8.92-.03,10.88-.02,21.77.04,32.65,0,1.17.27,2.42.74,3.48,1.6,3.57,4.53,5.01,8.35,4.93,2.74-.05,3.19-.42,3.19-3.11,0-7.27,0-14.55,0-21.82Z"/><path class="cls-1" d="M133.45,144.37c0,11.4,0,22.79,0,34.19,0,1.51-.02,3.01.06,4.52.09,1.61,1.37,2.82,2.93,2.89,1.48.07,2.78-.99,3.08-2.55.09-.49.09-1,.09-1.5,0-25,0-50,0-75,0-.7-.01-1.43-.21-2.08-.4-1.32-1.29-2.1-2.75-2.12-1.49-.01-2.53.65-2.94,2.08-.2.71-.24,1.48-.24,2.23-.01,12.45,0,24.9-.01,37.35Z"/><path class="cls-1" d="M154.34,144.38c0,8.28,0,16.57,0,24.85,0,.6,0,1.21.1,1.8.38,2.02,2.45,3,4.29,2.08,1.49-.74,1.73-2.06,1.72-3.55-.01-16.31,0-32.63,0-48.94,0-.85.06-1.71-.02-2.56-.16-1.86-1.72-3.06-3.57-2.8-1.68.24-2.52,1.42-2.53,3.68-.01,8.48,0,16.97,0,25.45Z"/><path class="cls-1" d="M118.74,144.37c0-8.03,0-16.06,0-24.1,0-.85.01-1.71-.1-2.56-.21-1.56-1.34-2.49-2.89-2.5-1.98-.01-3.12,1.33-3.12,3.76,0,16.92,0,33.84,0,50.75,0,.35-.02.71.03,1.05.31,2.13,2.49,3.27,4.42,2.31,1.44-.72,1.67-2,1.67-3.42,0-8.43,0-16.87,0-25.3Z"/><path class="cls-1" d="M150.06,144.38c0-.95,0-1.91,0-2.86,0-4.86.02-9.73,0-14.59,0-1.93-1.25-3.33-2.91-3.41-1.76-.09-3.09,1.21-3.27,3.21-.03.4-.02.8-.02,1.2,0,10.93,0,21.86,0,32.8,0,.7.02,1.41.18,2.09.33,1.45,1.64,2.36,3.11,2.26,1.78-.12,2.89-1.45,2.9-3.54.01-5.72,0-11.43,0-17.15Z"/><path class="cls-1" d="M129.21,144.34h0c0-5.47,0-10.93,0-16.4,0-.75-.04-1.52-.23-2.23-.54-2.03-2.81-2.81-4.56-1.64-1.25.84-1.41,2.1-1.41,3.44,0,11.23,0,22.46,0,33.69,0,.4,0,.81.06,1.2.26,1.56,1.35,2.56,2.82,2.64,2.03.11,3.3-1.2,3.31-3.56.03-5.72,0-11.43,0-17.15Z"/><path class="cls-1" d="M164.79,144.23c0,3.66,0,7.33,0,10.99,0,2.18,1.15,3.61,2.92,3.65,1.87.04,3.14-1.4,3.14-3.61.01-7.28.01-14.56,0-21.84,0-2.23-1.22-3.64-3.1-3.67-1.68-.03-2.95,1.5-2.96,3.64-.02,3.61,0,7.23,0,10.84Z"/><path class="cls-1" d="M108.28,144.34h0c0-3.72.01-7.43,0-11.15-.01-2.1-1.16-3.36-3-3.37-1.81,0-3.04,1.3-3.04,3.35-.02,7.43-.02,14.86,0,22.29,0,2.06,1.23,3.4,3.03,3.4,1.8,0,3.01-1.32,3.03-3.38.02-3.72,0-7.43,0-11.15Z"/><path class="cls-1" d="M175.21,144.23s-.01,0-.02,0c0,1.65,0,3.31,0,4.96,0,.1,0,.2,0,.3.09,1.82,1.32,3.07,3.03,3.06,1.76,0,2.97-1.16,3-3.05.05-3.46.06-6.92.01-10.38-.02-1.84-1.28-3.05-3.01-3.07-1.69-.01-2.95,1.22-3.01,3.05-.06,1.7-.01,3.41-.01,5.11Z"/><path class="cls-1" d="M91.82,144.23s-.01,0-.02,0c0,.85,0,1.7,0,2.56,0,.85,0,1.7.03,2.56.07,1.95,1.17,3.16,2.85,3.19,1.94.03,3.15-1.09,3.18-3.18.06-3.41.04-6.81,0-10.22-.03-1.83-1.29-3.05-3.02-3.07-1.67-.02-2.95,1.25-3,3.06-.05,1.7-.01,3.41-.01,5.11Z"/><path class="cls-1" d="M87.45,144.32h.02c0-1.05,0-2.11,0-3.16,0-.1,0-.2-.01-.3-.18-1.51-1.44-2.66-2.95-2.68-1.67-.02-3,1.04-3.06,2.66-.09,2.3-.09,4.62.02,6.92.08,1.67,1.35,2.69,3.03,2.71,1.54.01,2.85-1.2,2.94-2.83.07-1.1.01-2.21.01-3.31Z"/><path class="cls-1" d="M191.61,144.28s.02,0,.03,0c0-1.1.05-2.2-.01-3.3-.09-1.68-1.26-2.77-2.91-2.81-1.6-.03-3.01,1.09-3.07,2.66-.09,2.35-.09,4.7,0,7.05.06,1.47,1.52,2.62,2.99,2.6,1.57-.02,2.83-1.08,2.95-2.6.09-1.19.02-2.4.02-3.6Z"/><path d="M53.22,140.01c0-8.99-.14-17.98.03-26.97.26-13.8,3.83-26.76,10.63-38.78,8.82-15.58,21.36-27.2,37.55-34.82,12.73-5.99,26.19-8.43,40.21-7.57,17.81,1.09,33.68,7.32,47.52,18.57,12.15,9.88,20.82,22.28,26.03,37.07,2.96,8.39,4.61,17.06,4.65,25.96.08,18.53.04,37.06.02,55.59,0,5.07-3.44,8.48-8.5,8.53-1.65.02-3.32.06-4.96-.07-3.87-.31-7.18-3.73-7.19-7.61-.05-17.07-.05-34.15,0-51.22.01-3.97,3.64-7.49,7.68-7.67,1.45-.07,2.91-.05,4.36,0,1.07.03,1.4-.32,1.21-1.44-1.06-6.12-2.9-11.99-5.44-17.64-5.49-12.25-13.64-22.41-24.38-30.43-9.51-7.09-20.1-11.75-31.79-13.96-8.87-1.67-17.76-1.81-26.63-.37-13.91,2.26-26.32,7.93-37.15,16.99-8.42,7.05-15.07,15.52-19.89,25.41-3.1,6.35-5.32,12.98-6.53,19.94-.22,1.23.19,1.46,1.28,1.5,2.14.08,4.34.02,6.39.52,3.26.8,5.56,4.03,5.57,7.41.03,16.82.04,33.64,0,50.47-.01,4.67-3.39,8.08-8.06,8.14-2.38.03-4.88.1-7.13-.53-3.49-.97-5.48-4.13-5.48-7.78-.02-9.74,0-19.48,0-29.23h.02Z"/><path d="M224.19,144.32c0-7.32,0-14.65,0-21.97,0-2.49.51-2.95,2.99-3.02,3.92-.12,6.98,1.3,8.6,5.02.49,1.11.7,2.43.71,3.65.05,10.94.02,21.87.01,32.81,0,5.37-4.23,9.33-10.68,8.43-1.28-.18-1.64-1.15-1.64-2.33,0-3.21,0-6.42,0-9.63,0-4.31,0-8.63,0-12.94Z"/><path d="M48.87,144.38c0,7.27,0,14.55,0,21.82,0,2.69-.45,3.05-3.19,3.11-3.83.07-6.75-1.36-8.35-4.93-.48-1.06-.74-2.32-.74-3.48-.06-10.88-.07-21.77-.04-32.65.02-5.83,4.19-9.5,9.99-8.92,1.76.18,2.32.77,2.32,2.64.01,7.47,0,14.95,0,22.42h0Z"/><path d="M133.45,144.37c0-12.45,0-24.9,0-37.35,0-.74.04-1.52.24-2.23.41-1.43,1.45-2.09,2.94-2.08,1.46.01,2.35.8,2.75,2.12.2.66.21,1.38.21,2.08.01,25,.01,50,0,75,0,.5,0,1.01-.09,1.5-.3,1.56-1.6,2.62-3.08,2.55-1.56-.07-2.84-1.28-2.93-2.89-.08-1.5-.06-3.01-.06-4.52,0-11.4,0-22.79,0-34.19Z"/><path d="M154.34,144.38c0-8.48,0-16.97,0-25.45,0-2.25.84-3.44,2.53-3.68,1.85-.26,3.41.94,3.57,2.8.07.85.02,1.71.02,2.56,0,16.31,0,32.63,0,48.94,0,1.49-.24,2.81-1.72,3.55-1.84.92-3.9-.06-4.29-2.08-.11-.59-.1-1.2-.1-1.8,0-8.28,0-16.57,0-24.85Z"/><path d="M118.74,144.37c0,8.43,0,16.87,0,25.3,0,1.42-.23,2.71-1.67,3.42-1.93.96-4.11-.17-4.42-2.31-.05-.35-.03-.7-.03-1.05,0-16.92,0-33.84,0-50.75,0-2.43,1.14-3.77,3.12-3.76,1.56,0,2.69.94,2.89,2.5.11.84.1,1.7.1,2.56,0,8.03,0,16.06,0,24.1Z"/><path d="M150.06,144.38c0,5.72,0,11.43,0,17.15,0,2.1-1.12,3.42-2.9,3.54-1.47.1-2.78-.81-3.11-2.26-.15-.67-.18-1.39-.18-2.09-.01-10.93,0-21.86,0-32.8,0-.4-.01-.8.02-1.2.17-1.99,1.5-3.29,3.27-3.21,1.66.08,2.9,1.48,2.91,3.41.02,4.86,0,9.73,0,14.59,0,.95,0,1.91,0,2.86Z"/><path d="M129.21,144.34c0,5.72.02,11.43,0,17.15-.01,2.36-1.28,3.68-3.31,3.56-1.47-.08-2.56-1.08-2.82-2.64-.07-.39-.06-.8-.06-1.2,0-11.23,0-22.46,0-33.69,0-1.34.15-2.6,1.41-3.44,1.75-1.17,4.02-.39,4.56,1.64.19.71.23,1.49.23,2.23.02,5.46,0,10.93,0,16.4h0Z"/><path d="M164.79,144.23c0-3.61-.01-7.23,0-10.84,0-2.13,1.28-3.66,2.96-3.64,1.89.03,3.1,1.45,3.1,3.67,0,7.28,0,14.56,0,21.84,0,2.21-1.27,3.65-3.14,3.61-1.76-.04-2.92-1.47-2.92-3.65,0-3.66,0-7.33,0-10.99Z"/><path d="M108.28,144.34c0,3.72.02,7.43,0,11.15-.01,2.06-1.23,3.38-3.03,3.38-1.8,0-3.02-1.34-3.03-3.4-.01-7.43-.02-14.86,0-22.29,0-2.05,1.23-3.36,3.04-3.35,1.84,0,2.99,1.27,3,3.37.02,3.72,0,7.43,0,11.15h0Z"/><path d="M175.21,144.23c0-1.7-.04-3.41.01-5.11.06-1.83,1.32-3.07,3.01-3.05,1.73.01,2.99,1.23,3.01,3.07.04,3.46.04,6.92-.01,10.38-.03,1.88-1.24,3.04-3,3.05-1.71,0-2.94-1.24-3.03-3.06,0-.1,0-.2,0-.3,0-1.65,0-3.31,0-4.96,0,0,.01,0,.02,0Z"/><path d="M91.82,144.23c0-1.7-.04-3.41.01-5.11.05-1.81,1.34-3.08,3-3.06,1.73.02,2.99,1.23,3.02,3.07.05,3.41.07,6.81,0,10.22-.04,2.09-1.24,3.21-3.18,3.18-1.69-.03-2.78-1.24-2.85-3.19-.03-.85-.02-1.7-.03-2.56,0-.85,0-1.7,0-2.56,0,0,.01,0,.02,0Z"/><path d="M87.45,144.32c0,1.1.05,2.21-.01,3.31-.1,1.63-1.4,2.84-2.94,2.83-1.68-.01-2.95-1.04-3.03-2.71-.11-2.3-.11-4.62-.02-6.92.06-1.62,1.4-2.68,3.06-2.66,1.51.02,2.77,1.17,2.95,2.68.01.1.01.2.01.3,0,1.05,0,2.11,0,3.16h-.02Z"/><path d="M191.61,144.28c0,1.2.07,2.4-.02,3.6-.12,1.53-1.38,2.58-2.95,2.6-1.47.02-2.93-1.13-2.99-2.6-.1-2.35-.1-4.7,0-7.05.06-1.57,1.48-2.69,3.07-2.66,1.65.03,2.82,1.12,2.91,2.81.06,1.1.01,2.2.01,3.3-.01,0-.02,0-.03,0Z"/><circle class="cls-2" cx="134.53" cy="134.53" r="129.03"/></svg>