<?xml version="1.0" encoding="UTF-8"?><svg id="Layer_1" xmlns="http://www.w3.org/2000/svg" viewBox="0 0 269.06 269.06"><defs><style>.cls-1{fill:#fff;stroke-width:8px;}.cls-1,.cls-2,.cls-3{stroke-linecap:round;stroke-linejoin:round;}.cls-1,.cls-2,.cls-3,.cls-4{stroke:#231f20;}.cls-2{stroke-width:5px;}.cls-2,.cls-3,.cls-4{fill:none;}.cls-3{stroke-width:10px;}.cls-4{stroke-miterlimit:10;stroke-width:11px;}</style></defs><circle class="cls-4" cx="134.53" cy="134.53" r="129.03"/><path class="cls-3" d="M206.76,91.18v109.54c0,5.24-4.26,9.5-9.5,9.5h-92.29c-5.24,0-9.5-4.26-9.5-9.5V66.84c0-5.24,4.26-9.5,9.5-9.5h67l.63,34.15,34.16-.32-33.34-33.83"/><polygon class="cls-1" points="63.71 55.56 142.21 108.68 151.79 125.53 132.96 123.87 53.04 70.7 63.71 55.56"/><line class="cls-2" x1="80.55" y1="68.03" x2="71.21" y2="82.12"/><line class="cls-2" x1="71.64" y1="62.49" x2="62.29" y2="76.59"/><line class="cls-2" x1="88.48" y1="73.23" x2="79.13" y2="87.33"/><line class="cls-2" x1="142.31" y1="109.56" x2="132.97" y2="123.66"/><line class="cls-2" x1="121.4" y1="142.04" x2="181.18" y2="142.04"/><line class="cls-2" x1="108.85" y1="154.92" x2="194.39" y2="154.92"/><line class="cls-2" x1="108.85" y1="169.12" x2="194.39" y2="169.12"/><line class="cls-2" x1="108.85" y1="183.32" x2="194.39" y2="183.32"/></svg>