<?xml version="1.0" encoding="UTF-8"?><svg id="Layer_1" xmlns="http://www.w3.org/2000/svg" viewBox="0 0 311 311"><defs><style>.cls-1{stroke-linecap:round;stroke-linejoin:round;stroke-width:4.86px;}.cls-1,.cls-2,.cls-3{fill:none;stroke:#231f20;}.cls-2{stroke-width:6.48px;}.cls-2,.cls-3{stroke-miterlimit:10;}.cls-3{stroke-width:11px;}</style></defs><path class="cls-2" d="M229.15,179.93c.44,1.42.53,2.54,1.08,3.37,2.31,3.54,2.1,6.01-.35,10.16-3.02,5.11-5.12,11.8-4.5,18,.31,3.08-.09,6.49-.23,8.33-.72,9.81-5.68,13.05-15.53,14.63-5.07.81-10.27.87-15.41,1.16-10.3.58-12.71,2.8-13.37,13.08-.22,3.37-1.23,4.79-4.99,4.77-28.58-.16-57.16-.08-85.74-.08-5,0-5.79-.77-4.07-5.62,1.98-5.59,4.5-11.01,6.97-16.41,7.03-15.4,7.34-30.55-.84-45.74-4.45-8.26-8.38-16.81-12.32-25.34-5.11-11.08-9.48-22.46-11.08-34.65-2.65-20.23,4.24-37.34,18.11-51.69,24.51-25.36,54.22-30.26,86.83-20.2,31.65,9.77,52.42,38.14,53.19,71.07.04,1.71-.06,3.44-.18,5.15-.33,4.83,1.19,8.88,3.96,12.93,3.93,5.75,7.77,11.75,10.4,18.16,4.07,9.9.76,15.46-9.6,18.27-.62.17-1.24.35-2.35.66Z"/><path class="cls-1" d="M119.65,130.95l-2.77-6.53c-.15-.36-.62-.47-.91-.21l-5.33,4.68c-.38.34-.98.05-.96-.46l.34-7.09c.02-.39-.35-.69-.73-.58l-6.83,1.91c-.49.14-.91-.38-.66-.83l3.38-6.24c.19-.35-.02-.77-.41-.84l-6.98-1.25c-.5-.09-.65-.74-.24-1.04l5.75-4.15c.32-.23.32-.71,0-.94l-5.75-4.15c-.41-.3-.27-.95.24-1.04l6.98-1.25c.39-.07.59-.5.41-.84l-3.38-6.24c-.24-.45.17-.97.66-.83l6.83,1.91c.38.11.75-.19.73-.58l-.34-7.09c-.02-.51.58-.8.96-.46l5.33,4.68c.3.26.76.15.91-.21l2.77-6.53c.2-.47.86-.47,1.06,0l2.77,6.53c.15.36.62.47.91.21l5.33-4.68c.38-.34.98-.05.96.46l-.34,7.09c-.02.39.35.69.73.58l6.83-1.91c.49-.14.91.38.66.83l-3.38,6.24c-.19.35.02.77.41.84l6.99,1.25c.5.09.65.74.24,1.04l-5.75,4.15c-.32.23-.32.71,0,.94l5.75,4.15c.41.3.27.95-.24,1.04l-6.99,1.25c-.39.07-.59.5-.41.84l3.38,6.24c.24.45-.17.97-.66.83l-6.83-1.91c-.38-.11-.75.19-.73.58l.34,7.09c.02.51-.58.8-.96.46l-5.33-4.68c-.3-.26-.76-.15-.91.21l-2.77,6.53c-.2.47-.86.47-1.06,0Z"/><path class="cls-1" d="M146.24,172.34l-2.77-6.53c-.15-.36-.62-.47-.91-.21l-5.33,4.68c-.38.34-.98.05-.96-.46l.34-7.09c.02-.39-.35-.69-.73-.58l-6.83,1.91c-.49.14-.91-.38-.66-.83l3.38-6.24c.19-.35-.02-.77-.41-.84l-6.98-1.25c-.5-.09-.65-.74-.24-1.04l5.75-4.15c.32-.23.32-.71,0-.94l-5.75-4.15c-.41-.3-.27-.95.24-1.04l6.98-1.25c.39-.07.59-.5.41-.84l-3.38-6.24c-.24-.45.17-.97.66-.83l6.83,1.91c.38.11.75-.19.73-.58l-.34-7.09c-.02-.51.58-.8.96-.46l5.33,4.68c.3.26.76.15.91-.21l2.77-6.53c.2-.47.86-.47,1.06,0l2.77,6.53c.15.36.62.47.91.21l5.33-4.68c.38-.34.98-.05.96.46l-.34,7.09c-.02.39.35.69.73.58l6.83-1.91c.49-.14.91.38.66.83l-3.38,6.24c-.19.35.02.77.41.84l6.99,1.25c.5.09.65.74.24,1.04l-5.75,4.15c-.32.23-.32.71,0,.94l5.75,4.15c.41.3.27.95-.24,1.04l-6.99,1.25c-.39.07-.59.5-.41.84l3.38,6.24c.24.45-.17.97-.66.83l-6.83-1.91c-.38-.11-.75.19-.73.58l.34,7.09c.02.51-.58.8-.96.46l-5.33-4.68c-.3-.26-.76-.15-.91.21l-2.77,6.53c-.2.47-.86.47-1.06,0Z"/><path class="cls-1" d="M161.1,123.4l-1.62-3.83c-.09-.21-.36-.27-.53-.12l-3.12,2.75c-.22.2-.58.03-.56-.27l.2-4.15c.01-.23-.21-.4-.43-.34l-4.01,1.12c-.29.08-.53-.22-.39-.49l1.98-3.66c.11-.2-.01-.45-.24-.49l-4.09-.73c-.29-.05-.38-.43-.14-.61l3.37-2.43c.19-.14.19-.41,0-.55l-3.37-2.43c-.24-.17-.16-.56.14-.61l4.09-.73c.23-.04.35-.29.24-.49l-1.98-3.66c-.14-.26.1-.57.39-.49l4.01,1.12c.22.06.44-.11.43-.34l-.2-4.15c-.01-.3.34-.47.56-.27l3.12,2.75c.17.15.44.09.54-.12l1.62-3.83c.12-.28.51-.28.62,0l1.62,3.83c.09.21.36.27.54.12l3.12-2.75c.22-.2.58-.03.56.27l-.2,4.15c-.01.23.21.4.43.34l4.01-1.12c.29-.08.53.22.39.49l-1.98,3.66c-.11.2.01.45.24.49l4.09.73c.29.05.38.43.14.61l-3.37,2.43c-.19.14-.19.41,0,.55l3.37,2.43c.24.17.16.56-.14.61l-4.09.73c-.23.04-.35.29-.24.49l1.98,3.66c.14.26-.1.57-.39.49l-4.01-1.12c-.22-.06-.44.11-.43.34l.2,4.15c.01.3-.34.47-.56.27l-3.12-2.75c-.17-.15-.44-.09-.54.12l-1.62,3.83c-.12.28-.51.28-.62,0Z"/><circle class="cls-3" cx="155.5" cy="155.5" r="150"/></svg>